# xmcd
#
# Track frame offsets:
#	150
#	11517
#	20695
#	30647
#	47860
#	59107
#	69630
#	82090
#	96972
#	108135
#
# Disc length: 1565 seconds
#
# Revision: 2
# Processed by: cddbd v1.5.2PL0 Copyright (c) Steve Scherf et al.
# Submitted via: EasyCDDAExtractor 12.0.1.1
#
DISCID=86061b0a
DTITLE=Charlie McCoy - Harmonica Jones
DYEAR=1994
DGENRE=Instrumental
TTITLE0=Harmonica Jones
TTITLE1=Mississipi Blues
TTITLE2=Cold, Cold Heart
TTITLE3=You Were Always On My Mind
TTITLE4=Orange Blossom Special
TTITLE5=Today, I Started Lovin' You Again
TTITLE6=One O'Clock Jump
TTITLE7=Peace In The Valley
TTITLE8=I'm So Lonesome I Could Cry
TTITLE9=Shenandoah
EXTD=
EXTT0=
EXTT1=
EXTT2=
EXTT3=
EXTT4=
EXTT5=
EXTT6=
EXTT7=
EXTT8=
EXTT9=
PLAYORDER=
